<?xml version="1.0" encoding="UTF-8" standalone="no"?>
<!-- Created with Inkscape (http://www.inkscape.org/) -->

<svg
   xmlns:dc="http://purl.org/dc/elements/1.1/"
   xmlns:cc="http://creativecommons.org/ns#"
   xmlns:rdf="http://www.w3.org/1999/02/22-rdf-syntax-ns#"
   xmlns:svg="http://www.w3.org/2000/svg"
   xmlns="http://www.w3.org/2000/svg"
   xmlns:sodipodi="http://sodipodi.sourceforge.net/DTD/sodipodi-0.dtd"
   xmlns:inkscape="http://www.inkscape.org/namespaces/inkscape"
   width="297mm"
   height="210mm"
   id="svg2985"
   version="1.1"
   inkscape:version="0.48.3.1 r9886"
   sodipodi:docname="bhramaaram.svg">
  <defs
     id="defs2987" />
  <sodipodi:namedview
     inkscape:document-units="mm"
     pagecolor="#ffffff"
     bordercolor="#666666"
     borderopacity="1.0"
     inkscape:pageopacity="0.0"
     inkscape:pageshadow="2"
     inkscape:zoom="0.71227514"
     inkscape:cx="526.18109"
     inkscape:cy="472.58779"
     inkscape:current-layer="layer1"
     id="namedview2989"
     showgrid="false"
     inkscape:window-width="1366"
     inkscape:window-height="709"
     inkscape:window-x="0"
     inkscape:window-y="27"
     inkscape:window-maximized="1"
     inkscape:snap-to-guides="true"
     inkscape:snap-page="true"
     inkscape:snap-grids="false" />
  <metadata
     id="metadata2991">
    <rdf:RDF>
      <cc:Work
         rdf:about="">
        <dc:format>image/svg+xml</dc:format>
        <dc:type
           rdf:resource="http://purl.org/dc/dcmitype/StillImage" />
      </cc:Work>
    </rdf:RDF>
  </metadata>
  <g
     inkscape:label="Layer 1"
     inkscape:groupmode="layer"
     id="layer1">
    <path
       style="fill:#501616"
       id="path3132"
       d="m 532.93369,161.32713 c -0.18134,-0.10388 -0.34931,-0.2347 -0.50446,-0.37442 -0.17367,-0.16659 -0.33755,-0.34299 -0.51255,-0.50816 -0.21797,-0.21404 -0.40717,-0.45391 -0.5901,-0.69741 -0.20975,-0.29826 -0.41864,-0.59729 -0.62203,-0.8999 -0.2381,-0.35658 -0.45398,-0.72692 -0.66401,-1.10022 -0.24026,-0.42997 -0.46116,-0.87008 -0.67705,-1.31244 -0.24184,-0.4981 -0.4674,-1.00368 -0.68855,-1.51108 -0.24508,-0.55205 -0.45926,-1.11662 -0.67048,-1.68203 -0.23165,-0.60724 -0.4377,-1.2232 -0.6364,-1.84165 -0.2188,-0.6658 -0.40671,-1.34084 -0.59431,-2.01577 -0.19158,-0.72398 -0.3684,-1.45171 -0.54608,-2.17915 -0.17787,-0.76037 -0.34287,-1.52363 -0.50933,-2.28653 -0.1669,-0.80549 -0.32392,-1.61299 -0.48183,-2.42027 -0.15657,-0.84824 -0.31028,-1.6971 -0.45294,-2.54776 -0.158,-0.90167 -0.27795,-1.80891 -0.39541,-2.71643 -0.1293,-0.94316 -0.21671,-1.89118 -0.31028,-2.83827 -0.0948,-0.97388 -0.16289,-1.9499 -0.2238,-2.92634 -0.0576,-0.99435 -0.094,-1.98963 -0.12943,-2.98493 -0.0427,-0.998 -0.0561,-1.99679 -0.0696,-2.99548 -0.013,-0.99413 0.001,-1.98819 0.0247,-2.98203 0.0298,-0.98645 0.0694,-1.97256 0.12324,-2.958 0.0544,-0.98481 0.13107,-1.96828 0.21697,-2.95083 0.0871,-0.99015 0.19439,-1.97845 0.31015,-2.96568 0.1183,-0.99112 0.25078,-1.98052 0.3865,-2.96942 0.13512,-0.9915 0.313,-1.97648 0.49387,-2.96055 0.17893,-0.97836 0.3864,-1.95102 0.60633,-2.921 0.21575,-0.96412 0.46129,-1.92136 0.71777,-2.87551 0.25928,-0.95413 0.55069,-1.89877 0.86505,-2.836307 0.31952,-0.94115 0.67864,-1.86813 1.05694,-2.78735 0.38135,-0.92648 0.81896,-1.82816 1.27163,-2.72196 0.45277,-0.89823 0.9547,-1.77032 1.46998,-2.63429 0.51801,-0.87165 1.0774,-1.71774 1.65364,-2.55228 0.58315,-0.84655 1.19775,-1.67066 1.83526,-2.4775 0.65726,-0.83955 1.35629,-1.64465 2.07717,-2.43065 0.76474,-0.8248 1.57659,-1.60433 2.40486,-2.36569 0.86263,-0.78485 1.7541,-1.53746 2.65721,-2.27583 0.91905,-0.74803 1.8605,-1.4682 2.80895,-2.17898 0.95632,-0.71465 1.93016,-1.40569 2.91247,-2.08461 0.99767,-0.69045 2.01938,-1.34536 3.05332,-1.98075 1.0629,-0.64908 2.15267,-1.252574 3.25158,-1.839054 1.14566,-0.60854 2.31356,-1.17452 3.4879,-1.726143 1.2082,-0.564001 2.43291,-1.091583 3.66277,-1.607031 1.24828,-0.523401 2.51081,-1.012314 3.7785,-1.48722 1.2751,-0.476206 2.56675,-0.906314 3.86356,-1.32009 1.29651,-0.416937 2.60542,-0.793717 3.91655,-1.162313 1.31994,-0.364424 2.65198,-0.683258 3.98485,-0.997204 3.10581,-0.714575 6.23366,-1.332036 9.36237,-1.93904 1.28708,-0.243983 2.58125,-0.447442 3.88004,-0.61882 1.25655,-0.169122 2.51863,-0.294786 3.78258,-0.394085 1.20835,-0.08602 2.41895,-0.131389 3.63021,-0.14358 1.15598,-0.0019 2.31161,0.04417 3.46524,0.114227 1.10825,0.07193 2.2109,0.207636 3.31126,0.353985 1.06483,0.142326 2.1188,0.349723 3.16645,0.584014 1.01468,0.229065 2.01268,0.521716 3.00245,0.838753 0.96679,0.311929 1.91221,0.682967 2.84795,1.075972 0.9217,0.389397 1.81837,0.832811 2.70437,1.295716 0.8682,0.456306 1.71048,0.958223 2.54071,1.478801 0.81055,0.509978 1.58395,1.074776 2.34582,1.653064 0.73915,0.561757 1.43639,1.174648 2.12238,1.798427 0.66409,0.604497 1.29445,1.243647 1.9082,1.897997 0.58776,0.62501 1.12478,1.294 1.64872,1.971784 0.49332,0.644 0.94542,1.3174 1.37922,2.00183 0.40962,0.65326 0.77587,1.33135 1.128,2.01633 0.3358,0.66278 0.62787,1.34598 0.90199,2.03575 0.26409,0.66525 0.47401,1.34856 0.66488,2.03736 0.17996,0.66612 0.31596,1.34255 0.42189,2.02383 0.10384,0.66461 0.16168,1.3351 0.1976,2.00635 0.0304,0.66328 0.015,1.32696 -0.0147,1.98986 -0.0346,0.66178 -0.11699,1.31954 -0.21106,1.97515 -0.0954,0.66095 -0.23622,1.31433 -0.39177,1.96357 -0.16256,0.65468 -0.36097,1.29949 -0.56746,1.94159 -0.2168,0.66653 -0.47459,1.31868 -0.74924,1.96353 -0.28442,0.66487 -0.59248,1.31945 -0.91125,1.9687 -0.33575,0.67078 -0.69042,1.33202 -1.05744,1.98642 -0.3887,0.68748 -0.79193,1.36675 -1.19898,2.043647 -0.43553,0.70882 -0.86816,1.4193 -1.29081,2.13577 -0.43291,0.7419 -0.8542,1.4902 -1.2567,2.24878 -0.40834,0.77251 -0.7759,1.565 -1.12879,2.36364 -0.35955,0.81807 -0.68016,1.65198 -0.98731,2.49054 -0.30344,0.83359 -0.56326,1.68153 -0.80778,2.53365 -0.23546,0.83397 -0.43363,1.67749 -0.60702,2.52611 -0.1634,0.83614 -0.26929,1.68152 -0.36,2.52797 -0.0838,0.82737 -0.11407,1.65871 -0.12622,2.48976 -0.0121,0.80072 0.0352,1.59955 0.1032,2.39689 0.0684,0.77287 0.19108,1.53903 0.32896,2.30221 0.13633,0.735 0.32359,1.45947 0.53355,2.17679 0.19932,0.70263 0.45467,1.38743 0.72373,2.06617 0.26427,0.66866 0.57851,1.31481 0.90272,1.95628 0.32142,0.64137 0.70408,1.24851 1.08946,1.85311 0.39406,0.60541 0.82129,1.18911 1.26416,1.7601 0.4514,0.57272 0.92601,1.12653 1.40981,1.6724 0.48729,0.56389 0.99744,1.10722 1.50892,1.64934 0.52629,0.54615 1.05314,1.09174 1.59774,1.62002 0.54448,0.54357 1.11971,1.05555 1.69803,1.56314 0.58799,0.52439 1.19243,1.03037 1.79469,1.53851 0.62994,0.53091 1.27613,1.04197 1.92059,1.55527 0.66834,0.52631 1.33967,1.04883 2.0213,1.55814 0.702,0.52756 1.41085,1.04617 2.11862,1.56608 0.72568,0.51466 1.43456,1.05208 2.14217,1.59077 0.7105,0.54869 1.41896,1.10001 2.13302,1.64416 0.72804,0.55343 1.43328,1.13515 2.14337,1.71077 0.71762,0.59071 1.42587,1.19282 2.12621,1.80361 0.70217,0.62517 1.39975,1.25537 2.0839,1.89994 0.69949,0.66974 1.36746,1.37057 2.02526,2.08033 0.6754,0.70976 1.33045,1.43796 1.9741,2.17606 0.65509,0.75323 1.28295,1.52902 1.90107,2.31221 0.63006,0.79753 1.23244,1.61559 1.81589,2.44713 0.59724,0.8364 1.13788,1.70945 1.66726,2.58899 0.51984,0.87578 1.01155,1.76742 1.48906,2.66647 0.47326,0.8968 0.90828,1.81239 1.32071,2.73806 0.42241,0.94406 0.79148,1.91 1.15517,2.87738 0.35996,0.96778 0.68834,1.94648 1.00958,2.92743 0.32201,0.97214 0.6119,1.95424 0.88351,2.94127 0.26867,0.96939 0.50572,1.94673 0.72975,2.92708 0.23024,0.99222 0.39324,1.99704 0.5172,3.0072 0.12182,1.05022 0.16687,2.1073 0.18494,3.16369 0.0211,1.06385 -0.0116,2.12738 -0.0684,3.18959 -0.0656,1.05793 -0.15924,2.11387 -0.27097,3.1679 -0.10659,1.05304 -0.29278,2.095 -0.5016,3.13206 -0.21282,1.04068 -0.47884,2.06933 -0.76195,3.09303 -0.29184,1.04042 -0.62442,2.0688 -0.97371,3.09143 -0.35818,1.04777 -0.76165,2.07919 -1.178,3.10527 -0.44623,1.07832 -0.9324,2.13974 -1.43029,3.19537 -0.50846,1.06147 -1.0301,2.11679 -1.57866,3.15845 -0.54224,1.03847 -1.12681,2.05389 -1.71914,3.06475 -0.58709,1.00775 -1.19922,2.00056 -1.8313,2.98106 -0.63352,0.97497 -1.3049,1.92495 -1.98622,2.86742 -0.68148,0.94135 -1.40134,1.85421 -2.1354,2.7555 -0.73249,0.89671 -1.50034,1.76391 -2.28057,2.61979 -0.78063,0.85396 -1.59265,1.67867 -2.41558,2.49234 -0.82527,0.81394 -1.67831,1.59927 -2.54087,2.37396 -0.86666,0.7765 -1.75777,1.52533 -2.65719,2.264 -0.90498,0.74153 -1.83141,1.45656 -2.76514,2.16191 -0.94043,0.7089 -1.89969,1.39258 -2.86533,2.06712 -0.97322,0.6785 -1.96296,1.33312 -2.95829,1.97915 -0.99838,0.65203 -2.01775,1.27104 -3.04599,1.87537 -1.04789,0.61604 -2.11831,1.19292 -3.19902,1.74993 -1.102,0.56006 -2.22179,1.08458 -3.34916,1.59222 -1.12851,0.51112 -2.2751,0.9808 -3.42632,1.43877 -1.1601,0.45895 -2.33372,0.8828 -3.51345,1.28907 -1.17933,0.40177 -2.3699,0.76992 -3.56387,1.1262 -1.18496,0.35609 -2.37719,0.68699 -3.57416,1.00077 -1.19701,0.31108 -2.40318,0.58554 -3.61092,0.85205 -2.98655,0.64019 -5.97614,1.27161 -8.98923,1.77551 -1.18481,0.19808 -2.37716,0.34401 -3.56889,0.49343 -1.1851,0.14067 -2.37394,0.24868 -3.56399,0.33847 -1.15882,0.0954 -2.3211,0.13633 -3.48289,0.17617 -1.12964,0.0288 -2.25991,0.0266 -3.38968,0.008 -1.10217,-0.0245 -2.203,-0.0821 -3.30361,-0.14285 -1.08032,-0.0553 -2.15596,-0.16323 -3.23106,-0.27837 -1.05189,-0.11578 -2.09965,-0.26312 -3.14495,-0.4268 -1.02957,-0.15536 -2.05405,-0.34315 -3.0735,-0.55379 -1.00592,-0.21574 -2.00298,-0.47089 -2.99178,-0.75347 -0.98836,-0.27228 -1.96217,-0.59315 -2.93294,-0.92103 -0.96172,-0.32194 -1.90715,-0.6869 -2.8522,-1.05335 -0.94188,-0.36801 -1.86759,-0.77437 -2.78281,-1.20305 -0.91473,-0.42302 -1.81994,-0.8665 -2.71665,-1.3259 -0.89063,-0.46213 -1.77221,-0.94091 -2.64932,-1.42775 -0.87232,-0.49069 -1.7289,-1.00787 -2.58727,-1.52193 -0.86045,-0.51305 -1.69522,-1.06624 -2.51828,-1.63597 -0.81706,-0.5788 -1.62608,-1.16861 -2.42173,-1.77607 -0.79166,-0.61742 -1.57652,-1.24331 -2.34792,-1.88549 -0.77558,-0.65375 -1.53093,-1.33078 -2.27776,-2.01655 -0.75813,-0.70002 -1.48905,-1.42823 -2.21694,-2.15893 -0.73873,-0.74929 -1.46033,-1.51508 -2.17433,-2.28753 -0.71616,-0.78862 -1.43054,-1.57884 -2.13235,-2.38009 -0.69927,-0.81212 -1.38943,-1.63205 -2.07444,-2.45604 -0.69112,-0.83175 -1.3567,-1.68376 -2.0125,-2.54303 -0.66319,-0.87095 -1.30107,-1.76035 -1.92989,-2.65589 -0.63615,-0.90793 -1.24843,-1.8319 -1.85224,-2.76119 -0.61095,-0.94216 -1.19951,-1.89825 -1.78018,-2.85897 -0.58747,-0.97381 -1.15407,-1.95975 -1.71329,-2.94973 -0.56566,-1.00312 -1.11187,-2.01681 -1.65123,-3.03403 -0.54538,-1.03023 -1.07269,-2.06971 -1.59364,-3.11227 -0.52654,-1.05535 -1.03631,-2.11879 -1.54018,-3.18493 -0.50905,-1.07862 -1.00255,-2.16431 -1.49059,-3.2524 -0.49279,-1.10015 -0.9712,-2.20654 -1.44455,-3.31503 -0.47771,-1.12011 -0.9421,-2.24573 -1.40182,-3.3732 -0.4637,-1.1386 -0.91512,-2.28207 -1.36217,-3.42719 -0.45072,-1.15575 -0.89005,-2.31579 -1.32536,-3.47732 -0.43357,-1.17331 -0.87003,-2.34551 -1.30831,-3.51709 -0.43742,-1.18531 -0.88701,-2.36612 -1.3317,-3.54875 -0.44333,-1.18389 -0.90021,-2.36272 -1.34879,-3.54464 -0.44076,-1.182 -0.89637,-2.35843 -1.34662,-3.53687 -0.44345,-1.17823 -0.89277,-2.35421 -1.34419,-3.52945 -0.45402,-1.17393 -0.88902,-2.35498 -1.33721,-3.53108 -0.45546,-1.18377 -0.89506,-2.37346 -1.34734,-3.55841 -0.45866,-1.19652 -0.91078,-2.39549 -1.35823,-3.59618 -0.45054,-1.20999 -0.89076,-2.42373 -1.32726,-3.63877 -0.44653,-1.22 -0.89282,-2.44009 -1.33383,-3.66208 -0.43812,-1.22004 -0.89008,-2.43515 -1.33416,-3.65307 -0.44517,-1.22126 -0.88073,-2.44592 -1.31268,-3.67183 -0.43383,-1.23227 -0.85841,-2.46772 -1.27969,-3.70426 -0.423,-1.24262 -0.83742,-2.48808 -1.24881,-3.73452 -0.41295,-1.25222 -0.81797,-2.507 -1.22017,-3.76266 -0.40363,-1.26112 -0.79991,-2.52454 -1.19357,-3.78876 -0.39499,-1.26938 -0.78316,-2.54082 -1.16889,-3.81299 -0.38513,-1.27654 7.14182,22.74561 4.83144,15.09893 -0.3642,-1.27198 11.43963,17.68132 1.80366,-12.4494 8.32329,26.45889 3.98907,12.54246 3.66036,11.27145 4.38147,15.27809 -1.31203,16.4424 -5.46402,1.17795 4.15199,15.26445 -2.25129,-6.42953 -2.46898,-7.49718 l 1.22017,3.76266 5.46482,-1.17273 c 1.74448,27.16648 -6.94908,-3.64062 -6.68499,-2.58993 0.3059,1.26516 3.9451,-6.21208 4.27264,-4.95222 0.32808,1.26798 2.07041,6.27776 2.41235,7.54215 0.35237,1.27301 3.47505,9.82382 3.83851,11.09378 0.36979,1.27856 0.94968,2.38065 1.33418,3.65492 0.38553,1.27081 -7.97984,-23.55886 -7.58504,-22.29085 0.39343,1.26275 0.78949,2.52468 1.19292,3.78432 0.40194,1.25406 0.80671,2.50723 1.21943,3.75783 0.41111,1.24472 0.82527,2.48844 1.24801,3.7293 0,0 0.84526,2.46819 1.27879,3.69856 0.43164,1.22394 0.86691,2.44662 1.31171,3.66592 0.44456,1.21837 0.89637,2.43414 1.33418,3.65492 0.44146,1.22213 0.88836,2.44229 1.33448,3.66275 0.43617,1.21289 0.87604,2.42447 1.32625,3.6323 0.44743,1.19936 -0.45875,-1.19515 0,0 0.45093,1.1856 2.25066,5.96687 2.70631,7.15071 0.44658,1.17607 0.88322,2.35587 1.33685,3.52932 0.45154,1.17551 0.89946,2.35233 1.34417,3.53039 0.45066,1.1787 0.90515,2.35597 1.34665,3.53809 0.44914,1.18231 0.90592,2.36177 1.34892,3.54635 0.44516,1.18283 0.89457,2.36408 1.33254,3.54955 0.43849,1.1714 0.8745,2.34367 1.30887,3.51657 0.43496,1.15903 0.87392,2.3166 1.32429,3.46984 0.44666,1.14238 0.89765,2.28312 1.36098,3.41898 0.45923,1.12447 0.92317,2.24709 1.40044,3.36417 0.47282,1.10521 0.9507,2.20831 1.443,3.30514 0.48742,1.08447 0.98032,2.16655 1.4888,3.24151 0.50317,1.06217 1.01225,2.12161 1.53815,3.17293 0.52014,1.03818 1.04666,2.07326 1.59132,3.09904 0.53843,1.0124 1.08374,2.02124 1.64856,3.01943 0.55816,0.98467 1.12371,1.96526 1.71023,2.93363 0.57943,0.95485 1.16681,1.90503 1.77666,2.84116 0.6024,0.92282 1.2133,1.84027 1.84817,2.74153 0.6272,0.88841 1.26349,1.77064 1.92522,2.63421 0.65422,0.85181 1.31836,1.69619 2.00745,2.52067 0.68412,0.81909 1.36991,1.63701 2.07108,2.44183 0.70152,0.79564 1.4122,1.58333 2.1289,2.36553 0.71278,0.76557 1.43135,1.52613 2.1701,2.26719 0.72542,0.72322 1.45365,1.44411 2.21132,2.13431 0.7448,0.67695 1.49625,1.34718 2.27138,1.98997 0.77031,0.63341 1.55025,1.25539 2.34173,1.86258 0.79415,0.59784 1.59783,1.18342 2.41459,1.75057 0.82079,0.55785 1.65373,1.09789 2.5087,1.60313 0.85374,0.51221 1.71036,1.02005 2.5815,1.50282 0.87541,0.48032 1.75326,0.95634 2.64355,1.40914 0.89624,0.45004 1.79811,0.88924 2.71048,1.30629 0.91279,0.41562 1.83518,0.81027 2.77233,1.16903 0.94044,0.36294 1.88649,0.71104 2.84374,1.02833 0.96799,0.31881 1.93883,0.62982 2.9238,0.89382 0.98604,0.26552 1.97629,0.51718 2.9788,0.71485 1.01746,0.19814 2.03834,0.37912 3.06425,0.52902 1.04255,0.15392 2.08695,0.29524 3.13557,0.4025 1.07134,0.11009 2.1446,0.19828 3.22048,0.25195 1.09753,0.0578 2.19571,0.10672 3.29483,0.12143 1.12636,0.009 2.25314,0.009 3.37894,-0.0327 1.15886,-0.0437 2.31747,-0.0989 3.47305,-0.19851 1.18678,-0.0994 2.3728,-0.21069 3.55411,-0.36245 1.18975,-0.15151 2.37867,-0.31032 3.56042,-0.51575 0.59402,-0.10252 1.18703,-0.20791 1.77852,-0.32401 0.1981,-0.0391 0.79177,-0.15945 0.59408,-0.11836 -5.37928,1.09532 -6.38016,1.30735 -4.22154,0.85354 1.20863,-0.2571 2.41376,-0.53094 3.61273,-0.82936 1.19701,-0.30782 2.39119,-0.62634 3.57485,-0.98195 1.19418,-0.35048 2.3857,-0.71051 3.56621,-1.10433 1.1807,-0.39446 2.35285,-0.81329 3.51405,-1.26138 1.15073,-0.45239 2.30005,-0.90914 3.42847,-1.41457 1.12692,-0.49932 2.24626,-1.01501 3.3501,-1.56309 1.0806,-0.54708 2.15286,-1.1108 3.20015,-1.71883 1.02871,-0.59555 2.05013,-1.20371 3.04743,-1.85009 0.99551,-0.63989 1.98554,-1.28829 2.95941,-1.96031 0.96588,-0.66783 1.92551,-1.3447 2.8667,-2.04657 0.93407,-0.69801 1.86097,-1.40559 2.76683,-2.13947 0.89987,-0.73065 1.79156,-1.47139 2.65927,-2.23959 0.86312,-0.76597 1.7169,-1.54251 2.5434,-2.3475 0.82361,-0.80423 1.63655,-1.61942 2.41858,-2.46378 0.78112,-0.84569 1.55006,-1.70266 2.28414,-2.58913 0.73526,-0.89053 1.45663,-1.79256 2.13946,-2.72358 0.68243,-0.93264 1.35216,-1.8748 1.98981,-2.83829 0.6349,-0.97099 1.24922,-1.95477 1.83461,-2.95604 0.58968,-1.00539 1.18343,-2.00881 1.7227,-3.04219 0.55422,-1.03092 1.07244,-2.08014 1.582,-3.13341 0.49935,-1.04478 0.98238,-2.09737 1.43247,-3.16407 0.4153,-1.01654 0.82106,-2.03723 1.18016,-3.07492 0.35132,-1.01134 0.68313,-2.02931 0.97766,-3.0585 0.28374,-1.011 0.55213,-2.02649 0.76752,-3.05433 0.21014,-1.02007 0.40212,-2.04445 0.51039,-3.08095 0.11359,-1.04459 0.20773,-2.09116 0.27636,-3.13968 0.0592,-1.04937 0.0949,-2.10013 0.0752,-3.15134 -0.0144,-1.03703 -0.0573,-2.07479 -0.17568,-3.10585 -0.12063,-0.99146 -0.28063,-1.97751 -0.50731,-2.95112 -0.22226,-0.97244 -0.457,-1.94204 -0.72408,-2.90349 -0.26929,-0.97845 -0.55715,-1.95189 -0.87694,-2.9154 -0.31939,-0.97316 -0.64571,-1.94414 -1.00392,-2.90409 -0.361,-0.95667 -0.72843,-1.91148 -1.14878,-2.84444 -0.41052,-0.91306 -0.84338,-1.81603 -1.31264,-2.70103 -0.47483,-0.88948 -0.9637,-1.77165 -1.48133,-2.63747 -0.52579,-0.86737 -1.06611,-1.72604 -1.65834,-2.55083 -0.58166,-0.82116 -1.18269,-1.62849 -1.80902,-2.41679 -0.61609,-0.77442 -1.24197,-1.54131 -1.89517,-2.28541 -0.64374,-0.73146 -1.3,-1.45179 -1.97037,-2.15937 -0.65434,-0.69831 -1.31844,-1.38818 -2.01705,-2.04336 -0.68356,-0.63653 -1.37662,-1.26306 -2.07884,-1.87925 -0.69995,-0.60382 -1.40398,-1.20324 -2.12189,-1.78598 -0.70596,-0.57413 -1.41494,-1.14469 -2.14008,-1.69497 -0.71143,-0.54656 -1.4205,-1.09612 -2.13273,-1.64164 -0.70835,-0.53465 -1.41901,-1.06616 -2.14054,-1.58326 -0.70768,-0.52282 -1.42033,-1.039 -2.12083,-1.57129 -0.68175,-0.51629 -1.35723,-1.04061 -2.02696,-1.57218 -0.64897,-0.51535 -1.29342,-1.03619 -1.92656,-1.57066 -0.60477,-0.51113 -1.21024,-1.02166 -1.79956,-1.55037 -0.58076,-0.51735 -1.15729,-1.03956 -1.70609,-1.59058 -0.54378,-0.5382 -1.07665,-1.08709 -1.60405,-1.64111 -0.51521,-0.54667 -1.02167,-1.10126 -1.51458,-1.66787 -0.48702,-0.55803 -0.96748,-1.12186 -1.41949,-1.70845 -0.44605,-0.58777 -0.88025,-1.18517 -1.27604,-1.80774 -0.39325,-0.62063 -0.77573,-1.24853 -1.10257,-1.90678 -0.33003,-0.65704 -0.64431,-1.32156 -0.91358,-2.00583 -0.27241,-0.6956 -0.53093,-1.39703 -0.73395,-2.11617 -0.21317,-0.73642 2.88923,6.78284 2.7501,6.02878 -0.14118,-0.77999 -3.56015,-9.82557 -3.63148,-10.61535 -0.0711,-0.81529 -0.12226,-1.63208 -0.11198,-2.451 0.0101,-0.84767 0.0387,-1.69556 0.11847,-2.53993 0.0892,-0.86306 0.19395,-1.72488 0.35227,-2.57856 0.16903,-0.86345 0.36764,-1.7209 0.60114,-2.56958 0.24305,-0.86496 0.50091,-1.72596 0.80283,-2.5728 0.3053,-0.84997 0.62394,-1.69544 0.98109,-2.52554 0.35091,-0.81132 0.71629,-1.61671 1.1224,-2.4026 0.39878,-0.76818 0.81857,-1.52475 1.25243,-2.27399 0.41816,-0.72061 0.84683,-1.4352 1.28763,-2.14242 0.4055,-0.67248 0.80898,-1.346177 1.19846,-2.027937 0.36686,-0.64527 0.72339,-1.29613 1.05951,-1.95778 0.32283,-0.63788 0.62949,-1.28415 0.91437,-1.93965 0.27774,-0.62677 0.53483,-1.26248 0.75513,-1.91161 0.20841,-0.62837 0.40522,-1.26046 0.57317,-1.90079 0.15958,-0.63086 0.29954,-1.26728 0.40035,-1.91018 0.0932,-0.63856 0.18154,-1.27822 0.2201,-1.92283 0.0331,-0.64488 0.0502,-1.29062 0.0247,-1.93619 -0.0313,-0.65262 -0.0864,-1.30452 -0.18623,-1.95065 -0.10095,-0.66008 -0.23297,-1.31514 -0.40777,-1.96019 -0.18636,-0.66918 -0.39135,-1.33298 -0.65037,-1.97864 -0.26987,-0.6724 -0.55708,-1.33842 -0.88844,-1.98362 -0.34749,-0.66894 -0.70952,-1.33072 -1.11462,-1.96745 -0.42928,-0.66779 -0.87596,-1.32496 -1.36419,-1.9521 -0.51846,-0.6615 -1.05127,-1.31272 -1.63354,-1.920594 -0.60975,-0.64005 -1.23555,-1.26522 -1.89466,-1.85565 -0.68074,-0.60893 -1.37344,-1.205635 -2.10776,-1.750865 -0.75652,-0.56348 -1.52497,-1.112246 -2.3306,-1.605311 -0.82602,-0.506426 -1.6634,-0.995109 -2.52677,-1.436787 -0.88151,-0.448201 -1.77352,-0.876686 -2.68998,-1.250725 -0.93088,-0.377618 -1.87121,-0.733083 -2.83209,-1.029233 -0.9846,-0.301206 -1.97709,-0.577897 -2.9853,-0.791191 -1.04263,-0.21845 -2.09118,-0.409543 -3.14925,-0.53918 -1.09543,-0.13568 -2.19278,-0.261438 -3.29593,-0.316203 -1.14878,-0.05699 -2.29907,-0.0974 -3.4495,-0.07759 -1.20619,0.02611 -2.412,0.07842 -3.61449,0.178116 -1.25978,0.111477 -2.5178,0.2441 -3.77013,0.421079 -1.29416,0.184065 -2.58435,0.395316 -3.86685,0.648041 -2.14597,0.424196 -1.54707,0.307013 4.10402,-0.837783 0.21965,-0.04449 -0.43893,0.09069 -0.65828,0.136578 -0.70685,0.147544 -0.61704,0.12832 -1.32396,0.285248 -0.22178,0.04924 -0.44344,0.09906 -0.66518,0.14856 -1.33174,0.310914 -2.66302,0.624021 -3.98518,0.973458 -1.31079,0.365079 -2.62163,0.731031 -3.91827,1.143548 -1.2961,0.40703 -2.58867,0.825388 -3.86431,1.292492 -1.2677,0.467948 -2.53085,0.948651 -3.77927,1.465421 -1.22899,0.510027 -2.45505,1.027007 -3.66289,1.585036 -1.17537,0.538801 -2.34002,1.101391 -3.48739,1.696761 -1.098,0.57693 -2.18896,1.16714 -3.2516,1.806624 -1.03714,0.62025 -2.05733,1.26837 -3.05515,1.94934 -0.98354,0.67026 -1.95653,1.35573 -2.91357,2.06284 -0.9486,0.70344 -1.89024,1.41627 -2.81054,2.15597 -0.90312,0.72832 -1.79474,1.47069 -2.65866,2.24471 -0.82855,0.74539 -1.63898,1.51085 -2.40653,2.31851 -0.72318,0.7702 -1.42611,1.55907 -2.07914,2.38932 -0.63998,0.79342 -1.25869,1.60331 -1.83831,2.44153 -0.57795,0.82148 -1.13971,1.65438 -1.65817,2.51443 -0.51376,0.85289 -1.02151,1.70987 -1.47465,2.5965 -0.45156,0.88088 -0.8947,1.76658 -1.27762,2.67952 -0.38031,0.90651 -0.73934,1.82154 -1.06169,2.75011 -0.31569,0.92652 -0.61135,1.859157 -0.87042,2.803017 -0.2592,0.94637 -0.50417,1.89691 -0.72119,2.85373 -0.22235,0.96193 -0.43044,1.92698 -0.61073,2.89763 -0.17996,0.97617 -0.36115,1.95249 -0.49807,2.93575 -0.13543,0.98567 -0.26916,1.97165 -0.38818,2.95943 -0.1179,0.98164 -0.22351,1.96487 -0.3125,2.94952 -0.0881,0.97651 -0.1633,1.95429 -0.21979,2.93311 -0.0564,0.97953 -0.0944,1.95988 -0.12674,2.94046 -0.0237,0.98712 -0.0408,1.9744 -0.0289,2.96185 0.0137,0.99468 0.0242,1.98955 0.0673,2.98353 0.0355,0.99042 0.0707,1.98085 0.12688,2.9704 0.0607,0.96973 0.12832,1.93901 0.22183,2.90626 0.0935,0.9415 0.1791,1.88411 0.3082,2.82165 0.11714,0.90058 0.23658,1.80087 0.39423,2.69556 0.14223,0.84557 0.29659,1.6891 0.45204,2.53237 0.15819,0.80322 0.31443,1.60687 0.48163,2.4083 0.16642,0.75822 0.33109,1.51688 0.50804,2.27276 0.17709,0.72158 0.35323,1.44351 0.54489,2.16145 0.18665,0.66757 0.37431,1.33505 0.59226,1.99342 0.19761,0.60987 0.40376,1.21681 0.63353,1.81563 0.20948,0.55564 0.42259,1.11013 0.66593,1.65227 0.22012,0.49934 0.44472,0.99684 0.68623,1.48645 0.21399,0.43145 0.4331,0.86058 0.67261,1.27877 0.20721,0.35899 0.42075,0.71462 0.65681,1.0559 0.20118,0.29104 0.3993,0.58474 0.61647,0.8644 0.17815,0.21955 0.36584,0.43095 0.57424,0.62306 0.15722,0.15809 0.31795,0.31615 0.49904,0.44721 0.14542,0.094 0.2885,0.1852 0.45836,0.23021 l -5.3967,1.64958 z"
       inkscape:connector-curvature="0"
       sodipodi:nodetypes="ccccccccccccccccccccccccccccccccccccccccccccccccccccccccccccccccccccccccccccccccccccccccccccccccccccccccccccccccccccccccccccccccccccccccccccccccccccccccccccccccccccccccccccccccccccccccccccccccccccccccccccccccccccccccccccccccccccccccccccccccccccccccccccccccccccccccccccccccccccccccccccccccccccccccccccccccccccccccccccccccccccccccccccccccccccccccccccccccccccccccccscsccccccccccccccccccccccccccccccccccccccccccccccccc" />
    <path
       style="fill:#501616"
       id="path3176"
       d="m 525.72924,165.43643 c -0.19061,-0.3619 -0.28743,-0.74512 -0.41587,-1.12076 -0.15869,-0.4583 -0.29647,-0.92026 -0.45256,-1.37907 -0.20219,-0.57458 -0.35153,-1.1585 -0.5276,-1.73769 -0.21877,-0.68797 -0.41213,-1.38023 -0.59364,-2.07431 -0.23052,-0.792 -0.45286,-1.58523 -0.66011,-2.38092 -0.21823,-0.90199 -0.44425,-1.80272 -0.67477,-2.70296 -0.24392,-0.99812 -0.49252,-1.99549 -0.74285,-2.99271 -0.27174,-1.09784 -0.51933,-2.19884 -0.79094,-3.29668 -0.29488,-1.17524 -0.56547,-2.3538 -0.82537,-3.53371 -0.27828,-1.26962 -0.52883,-2.54255 -0.77108,-3.81633 -0.25716,-1.35877 -0.49016,-2.72003 -0.71581,-4.08195 -0.23777,-1.4414 -0.45438,-2.88474 -0.66442,-4.32858 -0.21997,-1.51807 -0.4213,-3.03761 -0.61674,-4.55757 -0.20497,-1.56752 -0.34717,-3.13927 -0.49246,-4.71046 -0.16351,-1.62583 -0.26129,-3.25464 -0.3578,-4.88333 -0.10272,-1.68969 -0.14516,-3.38111 -0.19492,-5.07205 -0.0548,-1.74885 -0.054,-3.49837 -0.0615,-5.24762 0.003,-1.80203 0.0466,-3.60368 0.13352,-5.40447 0.0871,-1.81733 0.218,-3.632992 0.35886,-5.448302 0.15006,-1.83616 0.35237,-3.6693 0.56129,-5.50203 0.20344,-1.83912 0.45309,-3.67506 0.72185,-5.5093 0.26438,-1.82883 0.57602,-3.653497 0.9049,-5.476238 0.33016,-1.801226 0.73417,-3.593693 1.15778,-5.383432 0.41461,-1.773082 0.92599,-3.530794 1.4729,-5.282712 0.5273,-1.71203 1.19559,-3.395444 1.93011,-5.06222 0.71733,-1.627791 1.57626,-3.215801 2.49421,-4.783739 0.89951,-1.527041 1.93791,-3.002871 3.02808,-4.455818 1.069,-1.411436 2.25321,-2.769637 3.4811,-4.103995 1.16651,-1.26724 2.43712,-2.47592 3.74613,-3.659719 1.22198,-1.123611 2.57375,-2.156809 3.97071,-3.154377 1.31534,-0.941838 2.72361,-1.801988 4.1702,-2.624328 1.3458,-0.760881 2.75945,-1.447149 4.21503,-2.080233 1.33067,-0.569084 2.71887,-1.053634 4.13297,-1.4901 1.26196,-0.387597 2.57195,-0.667657 3.89971,-0.890033 1.17376,-0.19583 2.37096,-0.264213 3.56894,-0.296439 1.56661,-0.03707 3.12965,-0.01157 4.68312,0.140331 0.84673,0.08077 1.67851,0.227032 2.49299,0.417629 0.67387,0.158241 1.31533,0.380632 1.93052,0.640048 0.51784,0.224374 0.97467,0.512536 1.38945,0.834984 0.34852,0.275757 0.60582,0.600496 0.79943,0.950638 0.16332,0.311343 0.18094,0.633835 0.11299,0.96053 -0.0883,0.339407 -0.33009,0.62584 -0.60822,0.893078 -0.33892,0.311803 -0.7616,0.552163 -1.21732,0.756535 -0.50551,0.214818 -1.05847,0.347757 -1.61623,0.459121 -1.26976,0.209514 -2.59905,0.185657 -3.87762,0.023 -0.65455,-0.09498 -1.23852,-0.329411 -1.79656,-0.594935 -0.0786,-0.04225 -0.1573,-0.08449 -0.23595,-0.126726 0,0 1.6443,-0.120535 1.6443,-0.120535 l 0,0 c 0.0783,0.04001 0.15666,0.08 0.23499,0.120001 0.5561,0.253117 1.13848,0.468347 1.78656,0.546164 0.80272,0.08969 0.54964,0.0389 -0.58923,0.08998 -0.81675,0.03663 2.22655,-0.07496 1.19619,-0.102094 0.55411,-0.10013 1.10256,-0.22623 1.61051,-0.425017 0.45116,-0.189689 0.87229,-0.41193 1.21155,-0.710634 0.27112,-0.24589 0.51264,-0.509512 0.60413,-0.828253 0.0684,-0.303699 0.048,-0.601629 -0.11145,-0.889504 -0.19484,-0.334871 -0.45195,-0.643194 -0.79513,-0.903631 -0.41543,-0.310075 -0.87077,-0.586449 -1.38447,-0.799158 -0.61504,-0.250025 -1.25535,-0.463036 -1.9255,-0.61434 -0.81457,-0.181065 -1.64407,-0.32137 -2.48816,-0.396785 -0.60031,-0.05405 -3.41733,-0.08561 -0.87823,-0.129701 0.18118,-0.0031 -0.36245,2.77e-4 -0.54368,4.16e-4 -1.19598,0.02751 -2.39218,0.08406 -3.56576,0.273964 -1.3266,0.214332 -2.6358,0.487062 -3.89726,0.868826 -1.4137,0.430092 -2.80075,0.909898 -4.13151,1.473329 -1.45567,0.627066 -2.86885,1.308178 -4.21399,2.064871 -1.446,0.817719 -2.85496,1.672174 -4.16927,2.610371 -1.3965,0.992601 -2.74951,2.019849 -3.9701,3.139691 -1.30889,1.180028 -2.57944,2.384998 -3.74589,3.648692 -1.22774,1.330477 -2.41172,2.684895 -3.48076,4.092563 -1.08996,1.448777 -2.1282,2.920465 -3.02765,4.443461 -0.91797,1.563893 -1.777,3.147895 -2.49391,4.771905 -0.73475,1.662949 -1.40331,3.342581 -1.93029,5.051006 -0.54661,1.749694 -1.05868,3.505004 -1.47286,5.275907 -0.4234,1.788047 -0.82773,3.578753 -1.1579,5.378271 -0.32883,1.8217 -0.64065,3.645306 -0.9049,5.473106 -0.26872,1.83322 -0.51858,3.66814 -0.72184,5.50626 -0.20874,1.8316 -0.41124,3.66359 -0.56106,5.49862 -0.14073,1.81441 -0.27177,3.62914 -0.35875,5.44557 -0.087,1.79913 -0.12977,3.59915 -0.13318,5.39951 0.007,1.74846 0.007,3.4972 0.0619,5.24526 0.0499,1.69001 0.0925,3.38049 0.19542,5.06924 0.0967,1.62766 0.19469,3.25544 0.35831,4.88021 0.1454,1.57007 0.28768,3.1407 0.49274,4.70709 0.19563,1.51944 0.39717,3.03845 0.61735,4.55599 0.21024,1.44321 0.42706,2.88593 0.66508,4.3267 0.22584,1.36117 0.45906,2.72167 0.71648,4.07967 0.24246,1.27287 0.49323,2.54487 0.77179,3.81355 0.26018,1.17908 0.53113,2.35682 0.82608,3.53125 0.27161,1.09775 0.51907,2.19869 0.79167,3.29631 0.25067,0.99705 0.49908,1.99435 0.7438,2.99224 0.23081,0.9001 0.45612,1.80081 0.67556,2.70255 0.20789,0.79557 0.43146,1.58862 0.66098,2.38077 0.18193,0.69285 0.37612,1.38376 0.59454,2.07059 0.17482,0.57836 0.32622,1.16088 0.52856,1.73437 0.15609,0.45885 0.29376,0.92096 0.45355,1.37911 0.12505,0.37089 0.22497,0.74811 0.41443,1.10465 0,0 -1.65026,0.0476 -1.65026,0.0476 z"
       inkscape:connector-curvature="0" />
    <path
       style="fill:#501616"
       id="path3178"
       d="m 523.42051,162.65461 c -0.1601,-0.316 -0.31907,-0.63135 -0.45229,-0.95518 -0.1514,-0.41843 -0.31839,-0.83315 -0.46864,-1.25187 -0.19667,-0.51043 -0.41685,-1.0153 -0.64992,-1.51609 -0.26205,-0.58309 -0.58373,-1.14768 -0.88644,-1.71799 -0.36976,-0.64884 -0.71348,-1.3065 -1.05755,-1.96396 -0.38589,-0.76142 -0.762,-1.52595 -1.15481,-2.28519 -0.42502,-0.83419 -0.84803,-1.66909 -1.26463,-2.50593 -0.47496,-0.89941 -0.92308,-1.80707 -1.34844,-2.72167 -0.44364,-0.99884 -0.89701,-1.99499 -1.33048,-2.99664 -0.47032,-1.07881 -0.87271,-2.1746 -1.29836,-3.26448 -0.46071,-1.15618 -0.88883,-2.32005 -1.30012,-3.48763 -0.43744,-1.24776 -0.83315,-2.50418 -1.21603,-3.76288 -0.40468,-1.33657 -0.7725,-2.67974 -1.12889,-4.02471 -0.37437,-1.41875 -0.71624,-2.84262 -1.04788,-4.2679 -0.34647,-1.49488 -0.66415,-2.99371 -0.97266,-4.49368 -0.32199,-1.55842 -0.61729,-3.11993 -0.87909,-4.68526 -0.26648,-1.60235 -0.5045,-3.20728 -0.70798,-4.8153 -0.21692,-1.66342 -0.38096,-3.3303 -0.52793,-4.99828 -0.15887,-1.7117 -0.27512,-3.42529 -0.37507,-5.13964 -0.11108,-1.74844 -0.18076,-3.49796 -0.23528,-5.24796 -0.0389,-1.76976 -0.0466,-3.53971 -0.0283,-5.30961 0.0134,-1.77612 0.0647,-3.55189 0.14611,-5.32684 0.0771,-1.771817 0.21479,-3.541376 0.34593,-5.311075 0.13394,-1.77674 0.33657,-3.549321 0.56113,-5.320162 0.23953,-1.761807 0.51121,-3.520682 0.82212,-5.275549 0.30567,-1.734396 0.67517,-3.461295 1.07723,-5.183308 0.40128,-1.719517 0.85373,-3.431291 1.3378,-5.137455 0.47822,-1.709083 1.02557,-3.405597 1.62138,-5.09146 0.58123,-1.640447 1.30466,-3.245521 2.08679,-4.83234 0.76146,-1.534442 1.6601,-3.022351 2.6107,-4.48881 0.91142,-1.39108 1.92272,-2.738788 2.97326,-4.06696 0.96326,-1.212727 2.01724,-2.377742 3.11048,-3.519375 1.00223,-1.041411 2.08806,-2.02966 3.21145,-2.990547 1.01358,-0.863721 2.10232,-1.668842 3.22883,-2.439982 0.97706,-0.664642 2.02253,-1.261372 3.10235,-1.817303 0.91806,-0.466981 1.89228,-0.858018 2.89391,-1.200069 0.8252,-0.271007 1.68356,-0.467924 2.55029,-0.636219 0.7135,-0.137851 1.44539,-0.197854 2.17847,-0.210559 1.20862,-0.03098 2.39546,-0.02715 3.56291,0.211404 0.46732,0.09949 0.87798,0.284587 1.2554,0.518064 0.35631,0.224739 0.6056,0.507495 0.77995,0.836121 0.16863,0.36153 0.21904,0.743671 0.24905,1.125089 0.0237,0.422405 -0.0705,0.840103 -0.20418,1.247281 -0.15455,0.4446 -0.44747,0.840873 -0.77509,1.218321 -0.32909,0.378589 -0.75123,0.686996 -1.2146,0.960458 -0.45811,0.267614 -0.98185,0.435774 -1.5216,0.569873 -0.56124,0.136993 -1.14479,0.188452 -1.72978,0.200075 0,0 -1.54765,-0.191623 -1.54765,-0.191623 l 0,0 c 0.58091,0.0022 1.16275,-0.03942 1.72339,-0.165678 0.53518,-0.120384 1.05709,-0.27386 1.51573,-0.528219 0.46087,-0.259218 0.88311,-0.551819 1.21065,-0.919531 0.32431,-0.363251 0.61734,-0.744362 0.77251,-1.175315 0.13335,-0.393766 0.22631,-0.798596 0.20345,-1.207921 -0.0296,-0.367334 -0.0777,-0.73613 -0.24816,-1.082394 -0.17624,-0.308073 -0.42912,-0.568339 -0.7747,-0.772979 -0.37746,-0.217176 -0.79023,-0.381722 -1.24771,-0.46841 -0.55933,-0.104386 -2.83229,-0.255582 -0.46251,-0.183151 -0.73047,-1.01e-4 -1.46112,0.05375 -2.17418,0.182611 -0.86476,0.164217 -1.72279,0.351367 -2.54826,0.615889 -1.00145,0.333358 -1.97455,0.718408 -2.89244,1.178932 -1.07991,0.549451 -2.12474,1.140873 -3.10158,1.80038 -1.12685,0.765993 -2.21543,1.566575 -3.22867,2.426224 -1.12346,0.956655 -2.20931,1.940815 -3.2114,2.978461 -1.09338,1.137834 -2.14748,2.299151 -3.11073,3.508399 -1.05064,1.32462 -2.06203,2.668818 -2.9736,4.056497 -0.95044,1.462247 -1.84899,2.94598 -2.61043,4.476337 -0.78216,1.582709 -1.50567,3.183714 -2.08684,4.820216 -0.59625,1.683633 -1.14334,3.378095 -1.62124,5.085129 -0.48434,1.704554 -0.93641,3.414834 -1.33762,5.132809 -0.40231,1.720207 -0.7716,3.445381 -1.07733,5.178012 -0.31116,1.753245 -0.58243,3.510559 -0.8222,5.270755 -0.22445,1.769162 -0.42712,3.540049 -0.56105,5.315112 -0.13098,1.768801 -0.26877,3.537453 -0.34586,5.308365 -0.0815,1.7738 -0.13274,3.54844 -0.14608,5.32342 -0.0182,1.76857 -0.0112,3.53719 0.0283,5.30559 0.0547,1.74914 0.12456,3.49778 0.23569,5.24536 0.10001,1.71339 0.21622,3.42602 0.37528,5.13677 0.14708,1.66677 0.31138,3.33241 0.52835,4.99461 0.20366,1.60671 0.44192,3.21035 0.70836,4.81141 0.26189,1.56414 0.5573,3.12443 0.87936,4.68162 0.30866,1.49914 0.6265,2.99713 0.97317,4.49115 0.33179,1.42427 0.67382,2.84714 1.0484,4.26489 0.35656,1.34377 0.72454,2.68573 1.12945,4.02107 0.38303,1.25728 0.7789,2.51223 1.21658,3.75853 0.4116,1.16643 0.84026,2.32908 1.30064,3.48425 0.42461,1.08894 0.82837,2.18319 1.29887,3.26072 0.43391,1.00062 0.88642,1.99615 1.33101,2.99383 0.42611,0.91352 0.87572,1.81981 1.34898,2.7189 0.41719,0.8362 0.83934,1.67091 1.26523,2.50437 0.39162,0.75949 0.76865,1.52358 1.15552,2.28456 0.34478,0.6571 0.68993,1.31411 1.05841,1.96328 0.30462,0.5717 0.62502,1.13873 0.88739,1.72371 0.23266,0.50406 0.45574,1.01124 0.65101,1.52512 0.15089,0.41699 0.31616,0.83058 0.46948,1.24698 0.13426,0.32046 0.29425,0.6326 0.45126,0.94645 0,0 -1.5657,0.0477 -1.5657,0.0477 z"
       inkscape:connector-curvature="0" />
    <flowRoot
       xml:space="preserve"
       id="flowRoot3272"
       style="font-size:40px;font-style:normal;font-weight:normal;line-height:125%;letter-spacing:0px;word-spacing:0px;fill:#000000;fill-opacity:1;stroke:none;font-family:Sans"
       transform="translate(4.2118556,-102.48849)"><flowRegion
         id="flowRegion3274"><rect
           id="rect3276"
           width="463.30411"
           height="81.429207"
           x="474.53574"
           y="386.08676" /></flowRegion><flowPara
         id="flowPara3278"
         style="font-style:normal;font-variant:normal;font-weight:normal;font-stretch:normal;font-family:Rachana;-inkscape-font-specification:Rachana"> നിന്‍  ചൊടികളില്‍ അരുണിമ </flowPara></flowRoot>    <path
       style="fill:#501616"
       d=""
       id="path3306"
       inkscape:connector-curvature="0" />
    <flowRoot
       xml:space="preserve"
       id="flowRoot2994"
       style="font-size:40px;font-style:normal;font-weight:normal;line-height:125%;letter-spacing:0px;word-spacing:0px;fill:#000000;fill-opacity:1;stroke:none;font-family:Sans"><flowRegion
         id="flowRegion2996"><rect
           id="rect2998"
           width="183.91309"
           height="185.88792"
           x="386.08676"
           y="183.91771" /></flowRegion><flowPara
         id="flowPara3000"
         style="font-size:72px;-inkscape-font-specification:Rachana;font-family:Rachana;font-weight:normal;font-style:normal;font-stretch:normal;font-variant:normal">ശല</flowPara></flowRoot>    <flowRoot
       xml:space="preserve"
       id="flowRoot3002"
       style="font-size:40px;font-style:normal;font-weight:normal;line-height:125%;letter-spacing:0px;word-spacing:0px;fill:#000000;fill-opacity:1;stroke:none;font-family:Sans"><flowRegion
         id="flowRegion3004"><rect
           id="rect3006"
           width="192.34151"
           height="108.10431"
           x="671.08899"
           y="183.91769" /></flowRegion><flowPara
         id="flowPara3008"
         style="font-size:72px;-inkscape-font-specification:Rachana;font-family:Rachana;font-weight:normal;font-style:normal;font-stretch:normal;font-variant:normal">മേ</flowPara></flowRoot>    <flowRoot
       xml:space="preserve"
       id="flowRoot3010"
       style="font-size:40px;font-style:normal;font-weight:normal;line-height:125%;letter-spacing:0px;word-spacing:0px;fill:#000000;fill-opacity:1;stroke:none;font-family:Sans"><flowRegion
         id="flowRegion3012"><rect
           id="rect3014"
           width="419.18661"
           height="125.32624"
           x="568.59375"
           y="375.88419" /></flowRegion><flowPara
         id="flowPara3016"
         style="-inkscape-font-specification:Rachana;font-family:Rachana;font-weight:normal;font-style:normal;font-stretch:normal;font-variant:normal">വിടരുന്നിതു പോലെ </flowPara></flowRoot>  </g>
</svg>
